# xmcd
#
# Track frame offsets:
#	150
#	15385
#	30385
#	52405
#	67635
#	88220
#	101653
#	117333
#	135263
#	157733
#	174490
#	188603
#
# Disc length: 2647 seconds
#
# Revision: 0
# Processed by: cddbd v1.5.2PL0 Copyright (c) Steve Scherf et al.
# Submitted via: EZCDAudioConverter 4.0.5.1
#
DISCID=8b0a550c
DTITLE=Harold East - Slidin' To The Moon
DYEAR=1994
DGENRE=Country
TTITLE0=Harold's Hound Dog Blues
TTITLE1=Mr  Man In The Moon
TTITLE2=Pass Me Not
TTITLE3=Once More
TTITLE4=Stevens Steel
TTITLE5=But I Do
TTITLE6=Juliana
TTITLE7=Welcome To New York
TTITLE8=Erase The Miles
TTITLE9=Greensleeves
TTITLE10=Some Morning Soon
TTITLE11=Hymn
EXTD=
EXTT0=
EXTT1=
EXTT2=
EXTT3=
EXTT4=
EXTT5=
EXTT6=
EXTT7=
EXTT8=
EXTT9=
EXTT10=
EXTT11=
PLAYORDER=
